<svg width="25" height="24" viewBox="0 0 25 24" fill="none" xmlns="http://www.w3.org/2000/svg">
<path d="M24.673 14.454V23.575H19.385V15.065C19.385 12.927 18.62 11.465 16.706 11.465C16.1096 11.4685 15.5289 11.6562 15.0433 12.0024C14.5576 12.3486 14.1908 12.8364 13.993 13.399C13.8573 13.8146 13.798 14.2513 13.818 14.688V23.572H8.527C8.527 23.572 8.598 9.158 8.527 7.664H13.816V9.919C13.805 9.936 13.791 9.954 13.781 9.97H13.816V9.919C14.2945 9.08706 14.9919 8.40214 15.8323 7.93865C16.6727 7.47516 17.624 7.25082 18.583 7.29C22.064 7.294 24.673 9.568 24.673 14.454ZM2.993 -9.12696e-08C2.61597 -0.031312 2.23652 0.0153107 1.87829 0.136966C1.52005 0.258621 1.19068 0.452705 0.910688 0.707139C0.630693 0.961573 0.406061 1.27091 0.250771 1.6159C0.0954814 1.96089 0.0128581 2.33416 0.00804342 2.71246C0.00322869 3.09076 0.0763255 3.466 0.222785 3.81483C0.369244 4.16366 0.585931 4.47862 0.85936 4.7401C1.13279 5.00157 1.45711 5.20398 1.81213 5.33471C2.16716 5.46544 2.54529 5.52171 2.923 5.5H2.958C3.33653 5.53122 3.71742 5.48391 4.07681 5.36106C4.43621 5.2382 4.76635 5.04243 5.04655 4.78603C5.32676 4.52962 5.55098 4.21811 5.70517 3.871C5.85937 3.5239 5.94021 3.14869 5.94262 2.76888C5.94504 2.38908 5.86898 2.01287 5.71922 1.66383C5.56946 1.31479 5.34921 1.00045 5.0723 0.740497C4.79538 0.480547 4.46775 0.280596 4.10995 0.153173C3.75215 0.0257509 3.37189 -0.0263968 2.993 -9.12696e-08V-9.12696e-08ZM0.313999 23.576H5.6V7.668H0.313999V23.576Z" fill="#3380B4"/>
</svg>
