<svg width="23" height="23" viewBox="0 0 23 23" fill="none" xmlns="http://www.w3.org/2000/svg">
<path d="M23 2.80072C22.1537 3.26041 21.2443 3.5711 20.2898 3.71083C21.2641 2.99548 22.0122 1.86277 22.3646 0.513156C21.4529 1.17544 20.443 1.65647 19.3682 1.91574C18.5073 0.792416 17.281 0.0904541 15.9238 0.0904541C13.3178 0.0904541 11.205 2.67829 11.205 5.8702C11.205 6.3232 11.2468 6.76435 11.3272 7.18736C7.40545 6.94633 3.92848 4.64527 1.60114 1.14845C1.19497 2.00209 0.962266 2.99496 0.962266 4.05419C0.962266 6.0594 1.79539 7.82852 3.06153 8.86498C2.28797 8.83499 1.56042 8.575 0.924156 8.1421C0.923819 8.16621 0.923819 8.19043 0.923819 8.21475C0.923819 11.0152 2.55037 13.3513 4.70903 13.8822C4.31304 14.0143 3.89618 14.0849 3.46577 14.0849C3.16173 14.0849 2.8661 14.0487 2.57805 13.9812C3.17847 16.2775 4.92112 17.9485 6.98598 17.9952C5.37104 19.5454 3.33638 20.4694 1.12564 20.4694C0.744793 20.4694 0.369158 20.4421 0 20.3887C2.08825 22.0286 4.56862 22.9854 7.2334 22.9854C15.9128 22.9854 20.659 14.1782 20.659 6.54042C20.659 6.28981 20.6545 6.04054 20.6454 5.79271C21.5673 4.97781 22.3674 3.9598 23 2.80072Z" fill="#55ACEE"/>
</svg>
