<svg width="24" height="24" viewBox="0 0 24 24" fill="none" xmlns="http://www.w3.org/2000/svg">
<path fill-rule="evenodd" clip-rule="evenodd" d="M2.09398 9.07485C2.21898 7.13385 3.72298 5.56585 5.65598 5.35885C7.66098 5.15685 9.79198 5.04785 12.001 5.04785C14.21 5.04785 16.341 5.15685 18.346 5.35985C20.279 5.56585 21.783 7.13385 21.908 9.07485C21.969 10.0309 22.001 11.0079 22.001 11.9999C22.001 12.9919 21.969 13.9689 21.908 14.9249C21.783 16.8659 20.279 18.4339 18.346 18.6409C16.341 18.8429 14.21 18.9519 12.001 18.9519C9.79198 18.9519 7.66098 18.8429 5.65598 18.6399C3.72298 18.4339 2.21898 16.8659 2.09398 14.9249C2.03298 13.9689 2.00098 12.9919 2.00098 11.9999C2.00098 11.0079 2.03298 10.0309 2.09398 9.07485V9.07485Z" fill="#FF0000"/>
<path fill-rule="evenodd" clip-rule="evenodd" d="M15.0574 12.0009L10.1484 14.9959V9.00586L15.0574 12.0009Z" fill="white"/>
</svg>
