<svg width="23" height="23" viewBox="0 0 23 23" fill="none" xmlns="http://www.w3.org/2000/svg">
<path d="M7.66728 11.5C7.66728 9.38299 9.38299 7.66636 11.5 7.66636C13.617 7.66636 15.3336 9.38299 15.3336 11.5C15.3336 13.617 13.617 15.3336 11.5 15.3336C9.38299 15.3336 7.66728 13.617 7.66728 11.5ZM5.59489 11.5C5.59489 14.7614 8.2386 17.4051 11.5 17.4051C14.7614 17.4051 17.4051 14.7614 17.4051 11.5C17.4051 8.2386 14.7614 5.59489 11.5 5.59489C8.2386 5.59489 5.59489 8.2386 5.59489 11.5ZM16.2589 5.36075C16.2588 5.63369 16.3396 5.90053 16.4911 6.12753C16.6427 6.35453 16.8582 6.53149 17.1103 6.63604C17.3624 6.74059 17.6399 6.76803 17.9076 6.71489C18.1753 6.66175 18.4212 6.53042 18.6143 6.3375C18.8074 6.14458 18.9389 5.89874 18.9923 5.63107C19.0456 5.36339 19.0184 5.08591 18.914 4.83371C18.8097 4.5815 18.6329 4.36591 18.406 4.21418C18.1792 4.06245 17.9124 3.98141 17.6394 3.9813H17.6389C17.273 3.98147 16.9222 4.12684 16.6635 4.38549C16.4047 4.64413 16.2592 4.9949 16.2589 5.36075V5.36075ZM6.854 20.8607C5.7328 20.8097 5.12339 20.6229 4.7184 20.4651C4.18149 20.2561 3.7984 20.0071 3.39563 19.6049C2.99285 19.2027 2.74353 18.82 2.53543 18.2831C2.37756 17.8783 2.1908 17.2687 2.13983 16.1475C2.08408 14.9353 2.07294 14.5711 2.07294 11.5001C2.07294 8.42904 2.085 8.06592 2.13983 6.85271C2.19089 5.73151 2.37903 5.12311 2.53543 4.71712C2.74445 4.1802 2.9934 3.79712 3.39563 3.39434C3.79785 2.99156 4.18057 2.74224 4.7184 2.53414C5.1232 2.37627 5.7328 2.18951 6.854 2.13854C8.06619 2.08279 8.43033 2.07166 11.5 2.07166C14.5697 2.07166 14.9342 2.08371 16.1474 2.13854C17.2686 2.1896 17.877 2.37774 18.283 2.53414C18.8199 2.74224 19.203 2.99212 19.6058 3.39434C20.0085 3.79656 20.2569 4.1802 20.466 4.71712C20.6238 5.12192 20.8106 5.73151 20.8616 6.85271C20.9173 8.06592 20.9284 8.42904 20.9284 11.5001C20.9284 14.5711 20.9173 14.9343 20.8616 16.1475C20.8105 17.2687 20.6228 17.8781 20.466 18.2831C20.2569 18.82 20.008 19.2031 19.6058 19.6049C19.2035 20.0068 18.8199 20.2561 18.283 20.4651C17.8782 20.623 17.2686 20.8098 16.1474 20.8607C14.9352 20.9165 14.5711 20.9276 11.5 20.9276C8.42895 20.9276 8.06582 20.9165 6.854 20.8607V20.8607ZM6.75878 0.069644C5.53454 0.125396 4.69798 0.319516 3.96741 0.603796C3.2108 0.897368 2.5703 1.29122 1.93025 1.93025C1.29021 2.56928 0.897368 3.2108 0.603796 3.96741C0.319516 4.69844 0.125396 5.53454 0.069644 6.75878C0.012972 7.98496 0 8.37697 0 11.5C0 14.623 0.012972 15.015 0.069644 16.2412C0.125396 17.4656 0.319516 18.3016 0.603796 19.0326C0.897368 19.7887 1.2903 20.431 1.93025 21.0697C2.5702 21.7085 3.2108 22.1018 3.96741 22.3962C4.69936 22.6805 5.53454 22.8746 6.75878 22.9304C7.9856 22.9861 8.37697 23 11.5 23C14.623 23 15.015 22.987 16.2412 22.9304C17.4656 22.8746 18.3016 22.6805 19.0326 22.3962C19.7887 22.1018 20.4297 21.7088 21.0697 21.0697C21.7098 20.4307 22.1018 19.7887 22.3962 19.0326C22.6805 18.3016 22.8755 17.4655 22.9304 16.2412C22.9861 15.0141 22.9991 14.623 22.9991 11.5C22.9991 8.37697 22.9861 7.98496 22.9304 6.75878C22.8746 5.53444 22.6805 4.69798 22.3962 3.96741C22.1018 3.21126 21.7088 2.5703 21.0697 1.93025C20.4307 1.29021 19.7887 0.897368 19.0335 0.603796C18.3016 0.319516 17.4655 0.124476 16.2421 0.069644C15.016 0.013892 14.624 0 11.5009 0C8.37789 0 7.9856 0.012972 6.75878 0.069644Z" fill="url(#paint0_radial)"/>
<path d="M7.66728 11.5C7.66728 9.38299 9.38299 7.66636 11.5 7.66636C13.617 7.66636 15.3336 9.38299 15.3336 11.5C15.3336 13.617 13.617 15.3336 11.5 15.3336C9.38299 15.3336 7.66728 13.617 7.66728 11.5ZM5.59489 11.5C5.59489 14.7614 8.2386 17.4051 11.5 17.4051C14.7614 17.4051 17.4051 14.7614 17.4051 11.5C17.4051 8.2386 14.7614 5.59489 11.5 5.59489C8.2386 5.59489 5.59489 8.2386 5.59489 11.5ZM16.2589 5.36075C16.2588 5.63369 16.3396 5.90053 16.4911 6.12753C16.6427 6.35453 16.8582 6.53149 17.1103 6.63604C17.3624 6.74059 17.6399 6.76803 17.9076 6.71489C18.1753 6.66175 18.4212 6.53042 18.6143 6.3375C18.8074 6.14458 18.9389 5.89874 18.9923 5.63107C19.0456 5.36339 19.0184 5.08591 18.914 4.83371C18.8097 4.5815 18.6329 4.36591 18.406 4.21418C18.1792 4.06245 17.9124 3.98141 17.6394 3.9813H17.6389C17.273 3.98147 16.9222 4.12684 16.6635 4.38549C16.4047 4.64413 16.2592 4.9949 16.2589 5.36075V5.36075ZM6.854 20.8607C5.7328 20.8097 5.12339 20.6229 4.7184 20.4651C4.18149 20.2561 3.7984 20.0071 3.39563 19.6049C2.99285 19.2027 2.74353 18.82 2.53543 18.2831C2.37756 17.8783 2.1908 17.2687 2.13983 16.1475C2.08408 14.9353 2.07294 14.5711 2.07294 11.5001C2.07294 8.42904 2.085 8.06592 2.13983 6.85271C2.19089 5.73151 2.37903 5.12311 2.53543 4.71712C2.74445 4.1802 2.9934 3.79712 3.39563 3.39434C3.79785 2.99156 4.18057 2.74224 4.7184 2.53414C5.1232 2.37627 5.7328 2.18951 6.854 2.13854C8.06619 2.08279 8.43033 2.07166 11.5 2.07166C14.5697 2.07166 14.9342 2.08371 16.1474 2.13854C17.2686 2.1896 17.877 2.37774 18.283 2.53414C18.8199 2.74224 19.203 2.99212 19.6058 3.39434C20.0085 3.79656 20.2569 4.1802 20.466 4.71712C20.6238 5.12192 20.8106 5.73151 20.8616 6.85271C20.9173 8.06592 20.9284 8.42904 20.9284 11.5001C20.9284 14.5711 20.9173 14.9343 20.8616 16.1475C20.8105 17.2687 20.6228 17.8781 20.466 18.2831C20.2569 18.82 20.008 19.2031 19.6058 19.6049C19.2035 20.0068 18.8199 20.2561 18.283 20.4651C17.8782 20.623 17.2686 20.8098 16.1474 20.8607C14.9352 20.9165 14.5711 20.9276 11.5 20.9276C8.42895 20.9276 8.06582 20.9165 6.854 20.8607V20.8607ZM6.75878 0.069644C5.53454 0.125396 4.69798 0.319516 3.96741 0.603796C3.2108 0.897368 2.5703 1.29122 1.93025 1.93025C1.29021 2.56928 0.897368 3.2108 0.603796 3.96741C0.319516 4.69844 0.125396 5.53454 0.069644 6.75878C0.012972 7.98496 0 8.37697 0 11.5C0 14.623 0.012972 15.015 0.069644 16.2412C0.125396 17.4656 0.319516 18.3016 0.603796 19.0326C0.897368 19.7887 1.2903 20.431 1.93025 21.0697C2.5702 21.7085 3.2108 22.1018 3.96741 22.3962C4.69936 22.6805 5.53454 22.8746 6.75878 22.9304C7.9856 22.9861 8.37697 23 11.5 23C14.623 23 15.015 22.987 16.2412 22.9304C17.4656 22.8746 18.3016 22.6805 19.0326 22.3962C19.7887 22.1018 20.4297 21.7088 21.0697 21.0697C21.7098 20.4307 22.1018 19.7887 22.3962 19.0326C22.6805 18.3016 22.8755 17.4655 22.9304 16.2412C22.9861 15.0141 22.9991 14.623 22.9991 11.5C22.9991 8.37697 22.9861 7.98496 22.9304 6.75878C22.8746 5.53444 22.6805 4.69798 22.3962 3.96741C22.1018 3.21126 21.7088 2.5703 21.0697 1.93025C20.4307 1.29021 19.7887 0.897368 19.0335 0.603796C18.3016 0.319516 17.4655 0.124476 16.2421 0.069644C15.016 0.013892 14.624 0 11.5009 0C8.37789 0 7.9856 0.012972 6.75878 0.069644Z" fill="url(#paint1_radial)"/>
<defs>
<radialGradient id="paint0_radial" cx="0" cy="0" r="1" gradientUnits="userSpaceOnUse" gradientTransform="translate(3.05569 23.1087) scale(30.0246)">
<stop offset="0.09" stop-color="#FA8F21"/>
<stop offset="0.78" stop-color="#D82D7E"/>
</radialGradient>
<radialGradient id="paint1_radial" cx="0" cy="0" r="1" gradientUnits="userSpaceOnUse" gradientTransform="translate(13.9485 24.1391) scale(23.6635)">
<stop offset="0.64" stop-color="#8C3AAA" stop-opacity="0"/>
<stop offset="1" stop-color="#8C3AAA"/>
</radialGradient>
</defs>
</svg>
